<?xml version="1.0" encoding="UTF-8" standalone="no"?>
<svg width="194px" height="57px" viewBox="0 0 194 57" version="1.1" xmlns="http://www.w3.org/2000/svg" xmlns:xlink="http://www.w3.org/1999/xlink">
    <!-- Generator: Sketch 39.1 (31720) - http://www.bohemiancoding.com/sketch -->
    <title>Logo</title>
    <desc>Created with Sketch.</desc>
    <defs>
        <linearGradient x1="0.25781251%" y1="49.7500002%" x2="101.257813%" y2="49.7500002%" id="linearGradient-1">
            <stop stop-color="#238BAE" offset="0%"></stop>
            <stop stop-color="#84A943" offset="100%"></stop>
        </linearGradient>
    </defs>
    <g id="Symbols" stroke="none" stroke-width="1" fill="none" fill-rule="evenodd">
        <g id="Logo">
            <circle id="Oval" fill="url(#linearGradient-1)" cx="28.5" cy="28.5" r="28.5"></circle>
            <polygon id="N" fill="#FFFFFF" points="40.6484375 37 40.6484375 25.9257812 40.7539062 25.9257812 48.6640625 37 51.59375 37 51.59375 20.0898438 48.2070312 20.0898438 48.2070312 31.1054688 48.1132812 31.1054688 40.2148438 20.0898438 37.2617188 20.0898438 37.2617188 37"></polygon>
            <path d="M18.352,32.28 L15.784,32.28 L15.784,36 L12.784,36 L12.784,32.28 L4.888,32.28 L4.888,30.528 L11.824,20.16 L15.784,20.16 L15.784,29.88 L18.352,29.88 L18.352,32.28 Z M8.08,29.88 L12.784,29.88 L12.784,25.032 L12.856,22.44 L12.808,22.44 C12.4559982,23.2560041 11.976003,24.1279954 11.368,25.056 L8.08,29.88 Z M33.136,22.224 C34.4960068,23.6000069 35.176,25.5519874 35.176,28.08 C35.176,30.6080126 34.4960068,32.5599931 33.136,33.936 C31.7759932,35.3120069 29.8560124,36 27.376,36 L21.256,36 L21.256,20.16 L27.376,20.16 C29.8560124,20.16 31.7759932,20.8479931 33.136,22.224 L33.136,22.224 Z M30.604,32.004 C31.3640038,31.0999955 31.744,29.7920086 31.744,28.08 C31.744,26.3679914 31.3640038,25.0600045 30.604,24.156 C29.8439962,23.2519955 28.7120075,22.8 27.208,22.8 L24.568,22.8 L24.568,33.36 L27.208,33.36 C28.7120075,33.36 29.8439962,32.9080045 30.604,32.004 L30.604,32.004 Z" id="4D" fill="#FFFFFF"></path>
            <path d="M74.512,22.224 C75.8720068,23.6000069 76.552,25.5519874 76.552,28.08 C76.552,30.6080126 75.8720068,32.5599931 74.512,33.936 C73.1519932,35.3120069 71.2320124,36 68.752,36 L62.632,36 L62.632,20.16 L68.752,20.16 C71.2320124,20.16 73.1519932,20.8479931 74.512,22.224 L74.512,22.224 Z M71.98,32.004 C72.7400038,31.0999955 73.12,29.7920086 73.12,28.08 C73.12,26.3679914 72.7400038,25.0600045 71.98,24.156 C71.2199962,23.2519955 70.0880075,22.8 68.584,22.8 L65.944,22.8 L65.944,33.36 L68.584,33.36 C70.0880075,33.36 71.2199962,32.9080045 71.98,32.004 L71.98,32.004 Z M91.24,33.912 L91,35.904 C90.5519978,36.1280011 90.032003,36.24 89.44,36.24 C87.9039923,36.24 86.9840015,35.640006 86.68,34.44 C86.3279982,35.032003 85.7840037,35.4799985 85.048,35.784 C84.3119963,36.0880015 83.440005,36.24 82.432,36.24 C81.2639942,36.24 80.3520033,35.9760026 79.696,35.448 C79.0399967,34.9199974 78.712,34.160005 78.712,33.168 C78.712,31.2159902 80.2719844,29.9520029 83.392,29.376 L86.272,28.824 L86.272,28.248 C86.272,27.6079968 86.0920018,27.1000019 85.732,26.724 C85.3719982,26.3479981 84.8720032,26.16 84.232,26.16 C83.4959963,26.16 82.8960023,26.3199984 82.432,26.64 C81.9679977,26.9600016 81.6480009,27.4799964 81.472,28.2 L78.856,27.096 C79.1120013,26.0559948 79.6879955,25.240003 80.584,24.648 C81.4800045,24.055997 82.6479928,23.76 84.088,23.76 C85.8000086,23.76 87.1359952,24.1319963 88.096,24.876 C89.0560048,25.6200037 89.536,26.7199927 89.536,28.176 L89.536,33.096 C89.536,33.4160016 89.6079993,33.6479993 89.752,33.792 C89.8960007,33.9360007 90.1199985,34.008 90.424,34.008 C90.7600017,34.008 91.031999,33.9760003 91.24,33.912 L91.24,33.912 Z M85.396,33.492 C85.9800029,33.1479983 86.272,32.680003 86.272,32.088 L86.272,30.84 L83.704,31.416 C83.1599973,31.5440006 82.7560013,31.7159989 82.492,31.932 C82.2279987,32.1480011 82.096,32.4479981 82.096,32.832 C82.096,33.2160019 82.2159988,33.507999 82.456,33.708 C82.6960012,33.908001 83.0319978,34.008 83.464,34.008 C84.1680035,34.008 84.8119971,33.8360017 85.396,33.492 L85.396,33.492 Z M100.984,35.256 C100.599998,35.5600015 100.116003,35.7999991 99.532,35.976 C98.9479971,36.1520009 98.3360032,36.24 97.696,36.24 C95.0239866,36.24 93.688,35.0320121 93.688,32.616 L93.688,26.448 L91.504,26.448 L91.504,24 L93.688,24 L93.688,21.24 L96.976,20.328 L96.976,24 L100.864,24 L100.864,26.448 L96.976,26.448 L96.976,32.088 C96.976,33.1920055 97.5279945,33.744 98.632,33.744 C99.3360035,33.744 99.9519974,33.5200022 100.48,33.072 L100.984,35.256 Z M114.952,33.912 L114.712,35.904 C114.263998,36.1280011 113.744003,36.24 113.152,36.24 C111.615992,36.24 110.696002,35.640006 110.392,34.44 C110.039998,35.032003 109.496004,35.4799985 108.76,35.784 C108.023996,36.0880015 107.152005,36.24 106.144,36.24 C104.975994,36.24 104.064003,35.9760026 103.408,35.448 C102.751997,34.9199974 102.424,34.160005 102.424,33.168 C102.424,31.2159902 103.983984,29.9520029 107.104,29.376 L109.984,28.824 L109.984,28.248 C109.984,27.6079968 109.804002,27.1000019 109.444,26.724 C109.083998,26.3479981 108.584003,26.16 107.944,26.16 C107.207996,26.16 106.608002,26.3199984 106.144,26.64 C105.679998,26.9600016 105.360001,27.4799964 105.184,28.2 L102.568,27.096 C102.824001,26.0559948 103.399996,25.240003 104.296,24.648 C105.192004,24.055997 106.359993,23.76 107.8,23.76 C109.512009,23.76 110.847995,24.1319963 111.808,24.876 C112.768005,25.6200037 113.248,26.7199927 113.248,28.176 L113.248,33.096 C113.248,33.4160016 113.319999,33.6479993 113.464,33.792 C113.608001,33.9360007 113.831998,34.008 114.136,34.008 C114.472002,34.008 114.743999,33.9760003 114.952,33.912 L114.952,33.912 Z M109.108,33.492 C109.692003,33.1479983 109.984,32.680003 109.984,32.088 L109.984,30.84 L107.416,31.416 C106.871997,31.5440006 106.468001,31.7159989 106.204,31.932 C105.939999,32.1480011 105.808,32.4479981 105.808,32.832 C105.808,33.2160019 105.927999,33.507999 106.168,33.708 C106.408001,33.908001 106.743998,34.008 107.176,34.008 C107.880004,34.008 108.523997,33.8360017 109.108,33.492 L109.108,33.492 Z M135.232,21.492 C136.256005,22.3800044 136.768,23.6319919 136.768,25.248 C136.768,26.8160078 136.256005,28.0399956 135.232,28.92 C134.207995,29.8000044 132.776009,30.24 130.936,30.24 L127.6,30.24 L127.6,36 L124.288,36 L124.288,20.16 L130.936,20.16 C132.776009,20.16 134.207995,20.6039956 135.232,21.492 L135.232,21.492 Z M132.688,27.06 C133.168002,26.651998 133.408,26.0400041 133.408,25.224 C133.408,24.4079959 133.168002,23.800002 132.688,23.4 C132.207998,22.999998 131.456005,22.8 130.432,22.8 L127.6,22.8 L127.6,27.672 L130.432,27.672 C131.456005,27.672 132.207998,27.468002 132.688,27.06 L132.688,27.06 Z M149.188,25.416 C150.268005,26.5200055 150.808,28.0479902 150.808,30 C150.808,31.9520098 150.268005,33.4799945 149.188,34.584 C148.107995,35.6880055 146.60001,36.24 144.664,36.24 C142.72799,36.24 141.220005,35.6880055 140.14,34.584 C139.059995,33.4799945 138.52,31.9520098 138.52,30 C138.52,28.0479902 139.059995,26.5200055 140.14,25.416 C141.220005,24.3119945 142.72799,23.76 144.664,23.76 C146.60001,23.76 148.107995,24.3119945 149.188,25.416 L149.188,25.416 Z M142.54,27.156 C142.051998,27.7880032 141.808,28.7359937 141.808,30 C141.808,31.2640063 142.051998,32.2119968 142.54,32.844 C143.028002,33.4760032 143.735995,33.792 144.664,33.792 C145.592005,33.792 146.299998,33.4760032 146.788,32.844 C147.276002,32.2119968 147.52,31.2640063 147.52,30 C147.52,28.7359937 147.276002,27.7880032 146.788,27.156 C146.299998,26.5239968 145.592005,26.208 144.664,26.208 C143.735995,26.208 143.028002,26.5239968 142.54,27.156 L142.54,27.156 Z M161.728,24.024 L161.32,26.904 C160.951998,26.6639988 160.448003,26.544 159.808,26.544 C159.023996,26.544 158.348003,26.8279972 157.78,27.396 C157.211997,27.9640028 156.928,28.7599949 156.928,29.784 L156.928,36 L153.64,36 L153.64,24 L156.496,24 L156.712,26.352 C157.368003,24.6239914 158.607991,23.76 160.432,23.76 C160.992003,23.76 161.423998,23.8479991 161.728,24.024 L161.728,24.024 Z M171.544,35.256 C171.159998,35.5600015 170.676003,35.7999991 170.092,35.976 C169.507997,36.1520009 168.896003,36.24 168.256,36.24 C165.583987,36.24 164.248,35.0320121 164.248,32.616 L164.248,26.448 L162.064,26.448 L162.064,24 L164.248,24 L164.248,21.24 L167.536,20.328 L167.536,24 L171.424,24 L171.424,26.448 L167.536,26.448 L167.536,32.088 C167.536,33.1920055 168.087994,33.744 169.192,33.744 C169.896004,33.744 170.511997,33.5200022 171.04,33.072 L171.544,35.256 Z M185.512,33.912 L185.272,35.904 C184.823998,36.1280011 184.304003,36.24 183.712,36.24 C182.175992,36.24 181.256002,35.640006 180.952,34.44 C180.599998,35.032003 180.056004,35.4799985 179.32,35.784 C178.583996,36.0880015 177.712005,36.24 176.704,36.24 C175.535994,36.24 174.624003,35.9760026 173.968,35.448 C173.311997,34.9199974 172.984,34.160005 172.984,33.168 C172.984,31.2159902 174.543984,29.9520029 177.664,29.376 L180.544,28.824 L180.544,28.248 C180.544,27.6079968 180.364002,27.1000019 180.004,26.724 C179.643998,26.3479981 179.144003,26.16 178.504,26.16 C177.767996,26.16 177.168002,26.3199984 176.704,26.64 C176.239998,26.9600016 175.920001,27.4799964 175.744,28.2 L173.128,27.096 C173.384001,26.0559948 173.959996,25.240003 174.856,24.648 C175.752004,24.055997 176.919993,23.76 178.36,23.76 C180.072009,23.76 181.407995,24.1319963 182.368,24.876 C183.328005,25.6200037 183.808,26.7199927 183.808,28.176 L183.808,33.096 C183.808,33.4160016 183.879999,33.6479993 184.024,33.792 C184.168001,33.9360007 184.391998,34.008 184.696,34.008 C185.032002,34.008 185.303999,33.9760003 185.512,33.912 L185.512,33.912 Z M179.668,33.492 C180.252003,33.1479983 180.544,32.680003 180.544,32.088 L180.544,30.84 L177.976,31.416 C177.431997,31.5440006 177.028001,31.7159989 176.764,31.932 C176.499999,32.1480011 176.368,32.4479981 176.368,32.832 C176.368,33.2160019 176.487999,33.507999 176.728,33.708 C176.968001,33.908001 177.303998,34.008 177.736,34.008 C178.440004,34.008 179.083997,33.8360017 179.668,33.492 L179.668,33.492 Z M190.744,32.184 C190.744,32.7600029 190.827999,33.1599989 190.996,33.384 C191.164001,33.6080011 191.471998,33.72 191.92,33.72 C192.192001,33.72 192.427999,33.7000002 192.628,33.66 C192.828001,33.6199998 193.063999,33.5520005 193.336,33.456 L193.048,35.736 C192.791999,35.8960008 192.456002,36.0199996 192.04,36.108 C191.623998,36.1960004 191.216002,36.24 190.816,36.24 C189.647994,36.24 188.796003,35.9560028 188.26,35.388 C187.723997,34.8199972 187.456,33.9120062 187.456,32.664 L187.456,18.744 L190.744,18.744 L190.744,32.184 Z" id="Data-Portal" fill="#000000"></path>
        </g>
    </g>
</svg>
