<?xml version="1.0" encoding="UTF-8" standalone="no"?>
<svg width="165px" height="42px" viewBox="0 0 165 42" version="1.1" xmlns="http://www.w3.org/2000/svg" xmlns:xlink="http://www.w3.org/1999/xlink">
    <!-- Generator: Sketch 39.1 (31720) - http://www.bohemiancoding.com/sketch -->
    <title>Logo</title>
    <desc>Created with Sketch.</desc>
    <defs>
        <linearGradient x1="0.25781251%" y1="49.7500002%" x2="101.257813%" y2="49.7500002%" id="linearGradient-1">
            <stop stop-color="#238BAE" offset="0%"></stop>
            <stop stop-color="#9FCA52" offset="100%"></stop>
        </linearGradient>
    </defs>
    <g id="Symbols" stroke="none" stroke-width="1" fill="none" fill-rule="evenodd">
        <g id="Logo">
            <circle id="Oval" fill="url(#linearGradient-1)" cx="21" cy="21" r="21"></circle>
            <path d="M58.728,28 L54.936,28 L49.392,18.688 L48.024,16.024 L48,16.024 L48.096,18.832 L48.096,28 L45.12,28 L45.12,12.16 L48.888,12.16 L54.432,21.448 L55.8,24.136 L55.848,24.136 L55.752,21.328 L55.752,12.16 L58.728,12.16 L58.728,28 Z M73.848,16 L73.848,28 L70.92,28 L70.8,25.936 C70.0319962,27.4720077 68.6320102,28.24 66.6,28.24 C65.3039935,28.24 64.2760038,27.8920035 63.516,27.196 C62.7559962,26.4999965 62.376,25.4160074 62.376,23.944 L62.376,16 L65.664,16 L65.664,23.104 C65.664,24.0320046 65.8399982,24.6879981 66.192,25.072 C66.5440018,25.4560019 67.0639966,25.648 67.752,25.648 C68.5840042,25.648 69.2599974,25.3800027 69.78,24.844 C70.3000026,24.3079973 70.56,23.5040054 70.56,22.432 L70.56,16 L73.848,16 Z M86.496,16.72 C87.3760044,17.3600032 87.9759984,18.2159946 88.296,19.288 L85.224,20.392 C84.9359986,18.9359927 84.1600063,18.208 82.896,18.208 C81.9519953,18.208 81.2280025,18.5319968 80.724,19.18 C80.2199975,19.8280032 79.968,20.7759938 79.968,22.024 C79.968,23.2720062 80.2239974,24.2119968 80.736,24.844 C81.2480026,25.4760032 81.9599954,25.792 82.872,25.792 C84.280007,25.792 85.1119987,25.0800071 85.368,23.656 L88.344,24.616 C88.0879987,25.7200055 87.4920047,26.5999967 86.556,27.256 C85.6199953,27.9120033 84.4080074,28.24 82.92,28.24 C80.9359901,28.24 79.4000054,27.6920055 78.312,26.596 C77.2239946,25.4999945 76.68,23.9680098 76.68,22 C76.68,20.0319902 77.2199946,18.5000055 78.3,17.404 C79.3800054,16.3079945 80.8799904,15.76 82.8,15.76 C84.3840079,15.76 85.6159956,16.0799968 86.496,16.72 L86.496,16.72 Z M94.2,24.184 C94.2,24.7600029 94.2839992,25.1599989 94.452,25.384 C94.6200008,25.6080011 94.9279978,25.72 95.376,25.72 C95.6480014,25.72 95.883999,25.7000002 96.084,25.66 C96.284001,25.6199998 96.5199986,25.5520005 96.792,25.456 L96.504,27.736 C96.2479987,27.8960008 95.9120021,28.0199996 95.496,28.108 C95.0799979,28.1960004 94.672002,28.24 94.272,28.24 C93.1039942,28.24 92.2520027,27.9560028 91.716,27.388 C91.1799973,26.8199972 90.912,25.9120062 90.912,24.664 L90.912,10.744 L94.2,10.744 L94.2,24.184 Z M109.728,23.248 L101.232,23.248 C101.568002,24.9440085 102.567992,25.792 104.232,25.792 C104.920003,25.792 105.487998,25.6640013 105.936,25.408 C106.384002,25.1519987 106.695999,24.7840024 106.872,24.304 L109.56,25.288 C109.175998,26.2480048 108.532005,26.9799975 107.628,27.484 C106.723995,27.9880025 105.592007,28.24 104.232,28.24 C102.24799,28.24 100.712005,27.6920055 99.624,26.596 C98.5359946,25.4999945 97.992,23.9680098 97.992,22 C97.992,20.0319902 98.5199947,18.5000055 99.576,17.404 C100.632005,16.3079945 102.11999,15.76 104.04,15.76 C105.896009,15.76 107.323995,16.2959946 108.324,17.368 C109.324005,18.4400054 109.824,19.9679901 109.824,21.952 C109.824,22.4000022 109.792,22.8319979 109.728,23.248 L109.728,23.248 Z M102.108,18.88 C101.635998,19.3440023 101.336001,20.0319954 101.208,20.944 L106.8,20.944 C106.671999,20.0479955 106.368002,19.3640024 105.888,18.892 C105.407998,18.4199976 104.784004,18.184 104.016,18.184 C103.215996,18.184 102.580002,18.4159977 102.108,18.88 L102.108,18.88 Z M122.628,17.416 C123.708005,18.5200055 124.248,20.0479902 124.248,22 C124.248,23.9520098 123.708005,25.4799945 122.628,26.584 C121.547995,27.6880055 120.04001,28.24 118.104,28.24 C116.16799,28.24 114.660005,27.6880055 113.58,26.584 C112.499995,25.4799945 111.96,23.9520098 111.96,22 C111.96,20.0479902 112.499995,18.5200055 113.58,17.416 C114.660005,16.3119945 116.16799,15.76 118.104,15.76 C120.04001,15.76 121.547995,16.3119945 122.628,17.416 L122.628,17.416 Z M115.98,19.156 C115.491998,19.7880032 115.248,20.7359937 115.248,22 C115.248,23.2640063 115.491998,24.2119968 115.98,24.844 C116.468002,25.4760032 117.175995,25.792 118.104,25.792 C119.032005,25.792 119.739998,25.4760032 120.228,24.844 C120.716002,24.2119968 120.96,23.2640063 120.96,22 C120.96,20.7359937 120.716002,19.7880032 120.228,19.156 C119.739998,18.5239968 119.032005,18.208 118.104,18.208 C117.175995,18.208 116.468002,18.5239968 115.98,19.156 L115.98,19.156 Z M145.164,16.888 C145.972004,17.6400038 146.376,18.719993 146.376,20.128 L146.376,28 L143.088,28 L143.088,20.776 C143.088,19.9439958 142.904002,19.332002 142.536,18.94 C142.167998,18.547998 141.664003,18.352 141.024,18.352 C140.255996,18.352 139.624002,18.6319972 139.128,19.192 C138.631998,19.7520028 138.384,20.535995 138.384,21.544 L138.384,28 L135.096,28 L135.096,20.776 C135.096,19.9439958 134.912002,19.332002 134.544,18.94 C134.175998,18.547998 133.664003,18.352 133.008,18.352 C132.287996,18.352 131.668003,18.6279972 131.148,19.18 C130.627997,19.7320028 130.368,20.5519946 130.368,21.64 L130.368,28 L127.08,28 L127.08,16 L130.032,16 L130.128,18.136 C130.528002,17.3519961 131.075997,16.760002 131.772,16.36 C132.468003,15.959998 133.247996,15.76 134.112,15.76 C135.008004,15.76 135.803997,15.9679979 136.5,16.384 C137.196003,16.8000021 137.703998,17.3999961 138.024,18.184 C138.408002,17.3999961 138.967996,16.8000021 139.704,16.384 C140.440004,15.9679979 141.239996,15.76 142.104,15.76 C143.336006,15.76 144.355996,16.1359962 145.164,16.888 L145.164,16.888 Z M160.872,23.248 L152.376,23.248 C152.712002,24.9440085 153.711992,25.792 155.376,25.792 C156.064003,25.792 156.631998,25.6640013 157.08,25.408 C157.528002,25.1519987 157.839999,24.7840024 158.016,24.304 L160.704,25.288 C160.319998,26.2480048 159.676005,26.9799975 158.772,27.484 C157.867995,27.9880025 156.736007,28.24 155.376,28.24 C153.39199,28.24 151.856005,27.6920055 150.768,26.596 C149.679995,25.4999945 149.136,23.9680098 149.136,22 C149.136,20.0319902 149.663995,18.5000055 150.72,17.404 C151.776005,16.3079945 153.26399,15.76 155.184,15.76 C157.040009,15.76 158.467995,16.2959946 159.468,17.368 C160.468005,18.4400054 160.968,19.9679901 160.968,21.952 C160.968,22.4000022 160.936,22.8319979 160.872,23.248 L160.872,23.248 Z M153.252,18.88 C152.779998,19.3440023 152.480001,20.0319954 152.352,20.944 L157.944,20.944 C157.815999,20.0479955 157.512002,19.3640024 157.032,18.892 C156.551998,18.4199976 155.928004,18.184 155.16,18.184 C154.359996,18.184 153.724002,18.4159977 153.252,18.88 L153.252,18.88 Z" id="Nucleome" fill="#000000"></path>
            <path d="M19.352,24.28 L16.784,24.28 L16.784,28 L13.784,28 L13.784,24.28 L5.888,24.28 L5.888,22.528 L12.824,12.16 L16.784,12.16 L16.784,21.88 L19.352,21.88 L19.352,24.28 Z M9.08,21.88 L13.784,21.88 L13.784,17.032 L13.856,14.44 L13.808,14.44 C13.4559982,15.2560041 12.976003,16.1279954 12.368,17.056 L9.08,21.88 Z M34.136,14.224 C35.4960068,15.6000069 36.176,17.5519874 36.176,20.08 C36.176,22.6080126 35.4960068,24.5599931 34.136,25.936 C32.7759932,27.3120069 30.8560124,28 28.376,28 L22.256,28 L22.256,12.16 L28.376,12.16 C30.8560124,12.16 32.7759932,12.8479931 34.136,14.224 L34.136,14.224 Z M31.604,24.004 C32.3640038,23.0999955 32.744,21.7920086 32.744,20.08 C32.744,18.3679914 32.3640038,17.0600045 31.604,16.156 C30.8439962,15.2519955 29.7120075,14.8 28.208,14.8 L25.568,14.8 L25.568,25.36 L28.208,25.36 C29.7120075,25.36 30.8439962,24.9080045 31.604,24.004 L31.604,24.004 Z" id="4D" fill="#FFFFFF"></path>
        </g>
    </g>
</svg>
